<?xml version="1.0" encoding="UTF-8" standalone="no"?>
<svg
   width="60"
   height="60"
   viewBox="0 0 60 60"
   version="1.1"
   id="svg31"
   xmlns="http://www.w3.org/2000/svg"
   xmlns:svg="http://www.w3.org/2000/svg">
  <defs
     id="defs35" />
  <path
     d="M 24,53.5 A 1.5,1.5 0 0 1 22.607,51.443 L 24.984,45.5 H 22.8 a 1.5,1.5 0 0 1 -1.393,-2.057 l 3.2,-8 a 1.5002326,1.5002326 0 0 1 2.786,1.114 L 25.016,42.5 H 27.2 a 1.5,1.5 0 0 1 1.393,2.057 l -3.2,8 A 1.5,1.5 0 0 1 24,53.5 Z"
     fill="#f2bf80"
     id="path11" />
  <circle
     cx="44"
     cy="16"
     fill="#eff28d"
     r="8"
     id="circle13" />
  <path
     d="M 44,25.5 A 9.5,9.5 0 1 1 53.5,16 9.511,9.511 0 0 1 44,25.5 Z m 0,-16 A 6.5,6.5 0 1 0 50.5,16 6.508,6.508 0 0 0 44,9.5 Z"
     fill="#f2bf80"
     id="path15" />
  <path
     d="m 44,20 a 7.992,7.992 0 0 0 -2.544,0.42 12,12 0 0 0 -22.912,0 A 8,8 0 1 0 16,36 h 28 a 8,8 0 0 0 0,-16 z"
     fill="#f1f3f4"
     id="path17" />
  <path
     d="M 44,37.5 H 16 a 9.5,9.5 0 0 1 0,-19 9.394,9.394 0 0 1 1.605,0.139 13.508,13.508 0 0 1 24.79,0 A 9.394,9.394 0 0 1 44,18.5 a 9.5,9.5 0 0 1 0,19 z m -28,-16 a 6.5,6.5 0 0 0 0,13 h 28 a 6.5,6.5 0 1 0 -2.066,-12.658 1.5,1.5 0 0 1 -1.91,-0.975 10.5,10.5 0 0 0 -20.048,0 1.5,1.5 0 0 1 -1.91,0.975 A 6.476,6.476 0 0 0 16,21.5 Z"
     fill="#8d9cf4"
     id="path19" />
  <path
     d="M 18.544,21.92 A 1.5,1.5 0 0 1 17.112,19.973 13.439,13.439 0 0 1 30,10.5 a 1.5,1.5 0 0 1 0,3 10.452,10.452 0 0 0 -10.024,7.367 1.5,1.5 0 0 1 -1.432,1.053 z"
     fill="#bec6f4"
     id="path21" />
  <path
     d="m 14,47.5 a 1.5,1.5 0 0 1 -1.341,-2.171 l 2,-4 a 1.5004016,1.5004016 0 1 1 2.684,1.342 l -2,4 A 1.5,1.5 0 0 1 14,47.5 Z"
     fill="#8d9cf4"
     id="path23" />
  <path
     d="m 34,47.5 a 1.5,1.5 0 0 1 -1.341,-2.171 l 2,-4 a 1.5004016,1.5004016 0 1 1 2.684,1.342 l -2,4 A 1.5,1.5 0 0 1 34,47.5 Z"
     fill="#8d9cf4"
     id="path25" />
  <path
     d="m 44,47.5 a 1.5,1.5 0 0 1 -1.341,-2.171 l 2,-4 a 1.5004016,1.5004016 0 1 1 2.684,1.342 l -2,4 A 1.5,1.5 0 0 1 44,47.5 Z"
     fill="#8d9cf4"
     id="path27" />
  <path
     d="M 8,29.5 A 1.5,1.5 0 0 1 6.5,28 9.488,9.488 0 0 1 19.021,19 1.5000301,1.5000301 0 1 1 18.066,21.844 6.487,6.487 0 0 0 9.5,28 1.5,1.5 0 0 1 8,29.5 Z"
     fill="#8d9cf4"
     id="path29" />
</svg>
